<svg id="information_1_" data-name="information (1)" xmlns="http://www.w3.org/2000/svg" width="50" height="50" viewBox="0 0 50 50">
  <path id="Path_22166" data-name="Path 22166" d="M40.625,50H9.375A9.374,9.374,0,0,1,0,40.625V9.375A9.374,9.374,0,0,1,9.375,0h31.25A9.374,9.374,0,0,1,50,9.375v31.25A9.374,9.374,0,0,1,40.625,50Z" fill="#ffe6e2"/>
  <path id="Path_22167" data-name="Path 22167" d="M24.917,11.479a2.595,2.595,0,1,0-1.1,1.1l1.1,1.1a.782.782,0,0,0,1.106-1.1ZM22.6,11.312a1.042,1.042,0,1,1,1.042-1.042A1.045,1.045,0,0,1,22.6,11.312Z" transform="translate(11.25 4.313)" fill="#fc573b"/>
  <path id="Path_22168" data-name="Path 22168" d="M9.823,13.918h13.02a1.825,1.825,0,0,0,1.823-1.823v-2.6a1.825,1.825,0,0,0-1.823-1.823H9.823A1.826,1.826,0,0,0,8,9.489v2.6A1.825,1.825,0,0,0,9.823,13.918Z" transform="translate(4.5 4.312)" fill="#fc573b"/>
  <g id="Group_9888" data-name="Group 9888" transform="translate(29.167 20.833)">
    <path id="Path_22169" data-name="Path 22169" d="M26.219,13.333h-6.77a.781.781,0,0,0,0,1.563h6.77a.781.781,0,0,0,0-1.562Z" transform="translate(-18.667 -13.333)" fill="#fd907e"/>
    <path id="Path_22170" data-name="Path 22170" d="M26.219,15.333h-6.77a.781.781,0,0,0,0,1.562h6.77a.781.781,0,1,0,0-1.562Z" transform="translate(-18.667 -12.208)" fill="#fd907e"/>
    <path id="Path_22171" data-name="Path 22171" d="M26.219,17.333h-6.77a.781.781,0,0,0,0,1.563h6.77a.781.781,0,1,0,0-1.562Z" transform="translate(-18.667 -11.083)" fill="#fd907e"/>
    <path id="Path_22172" data-name="Path 22172" d="M26.219,19.333h-6.77a.781.781,0,0,0,0,1.563h6.77a.781.781,0,1,0,0-1.562Z" transform="translate(-18.667 -9.958)" fill="#fd907e"/>
    <path id="Path_22173" data-name="Path 22173" d="M26.219,21.333h-6.77a.781.781,0,0,0,0,1.563h6.77a.781.781,0,1,0,0-1.562Z" transform="translate(-18.667 -8.833)" fill="#fd907e"/>
  </g>
  <path id="Path_22174" data-name="Path 22174" d="M9.823,27.4H20.761a1.833,1.833,0,0,0,1.823-1.823V15.156a1.833,1.833,0,0,0-1.823-1.823H9.823A1.833,1.833,0,0,0,8,15.156V25.574A1.831,1.831,0,0,0,9.823,27.4ZM15.292,16.98a1.563,1.563,0,1,1-1.562,1.563A1.561,1.561,0,0,1,15.292,16.98ZM12.167,23.1a2.081,2.081,0,0,1,2.188-1.958H16.23A2.081,2.081,0,0,1,18.417,23.1v.386a.788.788,0,0,1-.781.781H12.948a.788.788,0,0,1-.781-.781Z" transform="translate(4.5 7.5)" fill="#fc573b"/>
</svg>
