<svg xmlns="http://www.w3.org/2000/svg" width="90.243" height="26.598" viewBox="0 0 90.243 26.598">
  <g id="Download_on_the_App_Store_Badge" transform="translate(0)">
    <path id="Path_12287" data-name="Path 12287" d="M87.032,26.6H3.161A3.16,3.16,0,0,1,0,23.451V3.143A3.156,3.156,0,0,1,3.161,0H87.032a3.2,3.2,0,0,1,3.211,3.143V23.451A3.2,3.2,0,0,1,87.032,26.6Z" transform="translate(-0.001)" fill="#a6a6a6"/>
    <path id="Path_12288" data-name="Path 12288" d="M89.9,23.75A2.554,2.554,0,0,1,87.334,26.3H3.456A2.557,2.557,0,0,1,.89,23.75V3.44A2.56,2.56,0,0,1,3.456.89H87.334A2.556,2.556,0,0,1,89.9,3.44V23.75Z" transform="translate(-0.299 -0.298)"/>
    <g id="Group_9459" data-name="Group 9459" transform="translate(8.505 4.134)">
      <g id="Group_9458" data-name="Group 9458">
        <path id="Path_12289" data-name="Path 12289" d="M24.319,17.3a3.855,3.855,0,0,1,1.836-3.234,3.948,3.948,0,0,0-3.109-1.681c-1.308-.138-2.577.783-3.243.783s-1.706-.769-2.811-.747a4.14,4.14,0,0,0-3.484,2.125C12,17.155,13.124,20.988,14.568,23.1c.722,1.033,1.566,2.186,2.67,2.145,1.081-.045,1.484-.689,2.788-.689s1.671.689,2.8.663c1.16-.019,1.89-1.037,2.587-2.079a8.533,8.533,0,0,0,1.183-2.409A3.726,3.726,0,0,1,24.319,17.3Z" transform="translate(-12.792 -8.279)" fill="#fff"/>
        <path id="Path_12290" data-name="Path 12290" d="M25.648,8.936a3.794,3.794,0,0,0,.868-2.719,3.865,3.865,0,0,0-2.5,1.293,3.611,3.611,0,0,0-.891,2.619A3.192,3.192,0,0,0,25.648,8.936Z" transform="translate(-16.248 -6.217)" fill="#fff"/>
      </g>
    </g>
    <g id="Group_9460" data-name="Group 9460" transform="translate(28.675 11.97)">
      <path id="Path_12291" data-name="Path 12291" d="M49.881,27.045h-1.51l-.827-2.6H44.668l-.788,2.6H42.41L45.259,18.2h1.759Zm-2.587-3.69-.748-2.311q-.119-.354-.446-1.667h-.027q-.131.565-.42,1.667l-.735,2.311Z" transform="translate(-42.41 -18.066)" fill="#fff"/>
      <path id="Path_12292" data-name="Path 12292" d="M61.566,24.954a3.626,3.626,0,0,1-.88,2.573,2.572,2.572,0,0,1-1.956.84,1.956,1.956,0,0,1-1.812-.906h-.027v3.361H55.474v-6.88q0-1.023-.053-2.1h1.247l.079,1.011h.027a2.522,2.522,0,0,1,4.037-.25A3.516,3.516,0,0,1,61.566,24.954Zm-1.444.052a2.627,2.627,0,0,0-.42-1.536,1.451,1.451,0,0,0-1.234-.63,1.474,1.474,0,0,0-.952.348,1.613,1.613,0,0,0-.558.913,1.856,1.856,0,0,0-.066.432V25.6a1.7,1.7,0,0,0,.427,1.176,1.415,1.415,0,0,0,1.109.479,1.451,1.451,0,0,0,1.247-.617A2.716,2.716,0,0,0,60.122,25.006Z" transform="translate(-46.769 -19.244)" fill="#fff"/>
      <path id="Path_12293" data-name="Path 12293" d="M72.6,24.954a3.623,3.623,0,0,1-.88,2.573,2.57,2.57,0,0,1-1.956.84,1.954,1.954,0,0,1-1.811-.906h-.027v3.361H66.512v-6.88q0-1.023-.053-2.1h1.247l.079,1.011h.027a2.523,2.523,0,0,1,4.038-.25A3.525,3.525,0,0,1,72.6,24.954Zm-1.444.052a2.627,2.627,0,0,0-.421-1.536,1.449,1.449,0,0,0-1.233-.63,1.476,1.476,0,0,0-.952.348A1.612,1.612,0,0,0,68,24.1a1.892,1.892,0,0,0-.066.432V25.6a1.71,1.71,0,0,0,.426,1.176,1.418,1.418,0,0,0,1.11.479,1.451,1.451,0,0,0,1.247-.617A2.716,2.716,0,0,0,71.159,25.006Z" transform="translate(-50.468 -19.244)" fill="#fff"/>
      <path id="Path_12294" data-name="Path 12294" d="M85.273,24.5a2.358,2.358,0,0,1-.786,1.838,3.483,3.483,0,0,1-2.41.775,4.219,4.219,0,0,1-2.293-.551l.328-1.182a3.886,3.886,0,0,0,2.049.565,1.937,1.937,0,0,0,1.248-.362,1.181,1.181,0,0,0,.446-.967,1.233,1.233,0,0,0-.368-.907,3.418,3.418,0,0,0-1.221-.684q-2.324-.867-2.323-2.537a2.245,2.245,0,0,1,.815-1.788,3.211,3.211,0,0,1,2.166-.7,4.3,4.3,0,0,1,2.008.42l-.354,1.156a3.484,3.484,0,0,0-1.694-.407,1.714,1.714,0,0,0-1.168.368,1.051,1.051,0,0,0-.354.8,1.082,1.082,0,0,0,.406.866,4.592,4.592,0,0,0,1.287.683,4.368,4.368,0,0,1,1.68,1.076A2.248,2.248,0,0,1,85.273,24.5Z" transform="translate(-54.932 -18.001)" fill="#fff"/>
      <path id="Path_12295" data-name="Path 12295" d="M93.13,22.171H91.567v3.1q0,1.182.827,1.182a2.521,2.521,0,0,0,.63-.066l.039,1.077a3.212,3.212,0,0,1-1.1.157,1.7,1.7,0,0,1-1.313-.512,2.515,2.515,0,0,1-.473-1.72V22.169h-.931V21.106h.931V19.937l1.392-.42v1.589H93.13Z" transform="translate(-58.102 -18.509)" fill="#fff"/>
      <path id="Path_12296" data-name="Path 12296" d="M102.542,24.98A3.5,3.5,0,0,1,101.7,27.4a3,3,0,0,1-2.338.971,2.853,2.853,0,0,1-2.238-.932,3.393,3.393,0,0,1-.834-2.35,3.466,3.466,0,0,1,.86-2.428,2.976,2.976,0,0,1,2.317-.946,2.914,2.914,0,0,1,2.258.932A3.354,3.354,0,0,1,102.542,24.98Zm-1.471.046a2.87,2.87,0,0,0-.38-1.514,1.4,1.4,0,0,0-1.273-.763,1.422,1.422,0,0,0-1.3.763,2.925,2.925,0,0,0-.38,1.541,2.866,2.866,0,0,0,.38,1.513,1.449,1.449,0,0,0,2.56-.013A2.88,2.88,0,0,0,101.071,25.026Z" transform="translate(-60.463 -19.244)" fill="#fff"/>
      <path id="Path_12297" data-name="Path 12297" d="M110.9,23.089a2.461,2.461,0,0,0-.447-.039,1.339,1.339,0,0,0-1.156.565,2.124,2.124,0,0,0-.354,1.26v3.348h-1.417l.013-4.371q0-1.1-.053-2.009h1.235l.052,1.221h.039a2.182,2.182,0,0,1,.709-1.011,1.714,1.714,0,0,1,1.025-.342,2.276,2.276,0,0,1,.354.026v1.352Z" transform="translate(-64.214 -19.244)" fill="#fff"/>
      <path id="Path_12298" data-name="Path 12298" d="M119.3,24.725a3.325,3.325,0,0,1-.052.643h-4.253a1.851,1.851,0,0,0,.617,1.445,2.107,2.107,0,0,0,1.391.446,4.7,4.7,0,0,0,1.721-.3l.222.984a5.32,5.32,0,0,1-2.139.394,3.1,3.1,0,0,1-2.331-.873,3.225,3.225,0,0,1-.846-2.343,3.656,3.656,0,0,1,.789-2.4,2.717,2.717,0,0,1,2.231-1.023,2.378,2.378,0,0,1,2.089,1.023A3.451,3.451,0,0,1,119.3,24.725Zm-1.352-.368a1.926,1.926,0,0,0-.275-1.09,1.238,1.238,0,0,0-1.13-.591,1.345,1.345,0,0,0-1.128.578,2.116,2.116,0,0,0-.42,1.1h2.953Z" transform="translate(-66.272 -19.238)" fill="#fff"/>
    </g>
    <g id="Group_9462" data-name="Group 9462" transform="translate(29.517 4.359)">
      <g id="Group_9461" data-name="Group 9461">
        <path id="Path_12299" data-name="Path 12299" d="M47.249,8.949a2.183,2.183,0,0,1-.7,1.767,2.8,2.8,0,0,1-1.851.548,8.58,8.58,0,0,1-1.019-.052V6.936a7.522,7.522,0,0,1,1.2-.09,2.587,2.587,0,0,1,1.722.5A2.007,2.007,0,0,1,47.249,8.949Zm-.735.019a1.589,1.589,0,0,0-.4-1.168,1.588,1.588,0,0,0-1.178-.406,2.949,2.949,0,0,0-.561.045v3.251a3.679,3.679,0,0,0,.471.019,1.648,1.648,0,0,0,1.235-.445A1.781,1.781,0,0,0,46.515,8.969Z" transform="translate(-43.676 -6.653)" fill="#fff"/>
        <path id="Path_12300" data-name="Path 12300" d="M53.362,10.228a1.719,1.719,0,0,1-.413,1.187,1.474,1.474,0,0,1-1.148.477,1.4,1.4,0,0,1-1.1-.458,1.669,1.669,0,0,1-.409-1.154,1.7,1.7,0,0,1,.422-1.193,1.464,1.464,0,0,1,1.138-.464,1.434,1.434,0,0,1,1.11.457A1.655,1.655,0,0,1,53.362,10.228Zm-.723.023a1.418,1.418,0,0,0-.187-.744.688.688,0,0,0-.625-.375.7.7,0,0,0-.639.375,1.437,1.437,0,0,0-.187.757,1.418,1.418,0,0,0,.187.744.7.7,0,0,0,.632.375A.7.7,0,0,0,52.446,11,1.409,1.409,0,0,0,52.639,10.251Z" transform="translate(-45.893 -7.249)" fill="#fff"/>
        <path id="Path_12301" data-name="Path 12301" d="M60.477,8.719,59.5,11.854h-.638l-.406-1.361A10.189,10.189,0,0,1,58.2,9.48h-.013a7.415,7.415,0,0,1-.252,1.013L57.5,11.854h-.646l-.922-3.135h.716l.354,1.49q.129.529.213,1.006h.013q.078-.393.259-1l.445-1.5H58.5l.426,1.464q.155.536.251,1.032H59.2a9.86,9.86,0,0,1,.213-1.032l.38-1.464h.684Z" transform="translate(-47.783 -7.281)" fill="#fff"/>
        <path id="Path_12302" data-name="Path 12302" d="M66.814,11.82h-.7v-1.8q0-.83-.632-.83a.629.629,0,0,0-.5.228.809.809,0,0,0-.193.537V11.82h-.7V9.582q0-.413-.025-.9h.612l.033.49h.019a1.007,1.007,0,0,1,.361-.378,1.178,1.178,0,0,1,.632-.176,1,1,0,0,1,.729.284,1.38,1.38,0,0,1,.361,1.039Z" transform="translate(-50.508 -7.248)" fill="#fff"/>
        <path id="Path_12303" data-name="Path 12303" d="M70.737,11.129h-.7V6.556h.7Z" transform="translate(-52.51 -6.556)" fill="#fff"/>
        <path id="Path_12304" data-name="Path 12304" d="M75.711,10.228a1.719,1.719,0,0,1-.413,1.187,1.475,1.475,0,0,1-1.148.477,1.4,1.4,0,0,1-1.1-.458,1.669,1.669,0,0,1-.409-1.154,1.7,1.7,0,0,1,.422-1.193A1.464,1.464,0,0,1,74.2,8.623a1.435,1.435,0,0,1,1.11.457A1.655,1.655,0,0,1,75.711,10.228Zm-.723.023a1.418,1.418,0,0,0-.187-.744.687.687,0,0,0-.624-.375.7.7,0,0,0-.639.375,1.437,1.437,0,0,0-.187.757,1.418,1.418,0,0,0,.187.744.7.7,0,0,0,.632.375A.694.694,0,0,0,74.794,11,1.4,1.4,0,0,0,74.988,10.251Z" transform="translate(-53.381 -7.249)" fill="#fff"/>
        <path id="Path_12305" data-name="Path 12305" d="M81.033,11.821h-.626l-.052-.361h-.019a1.073,1.073,0,0,1-.916.432.945.945,0,0,1-.715-.284.89.89,0,0,1-.245-.638.974.974,0,0,1,.481-.877,2.5,2.5,0,0,1,1.352-.3V9.738q0-.619-.651-.619a1.458,1.458,0,0,0-.817.232l-.142-.457a2.01,2.01,0,0,1,1.075-.271q1.229,0,1.23,1.3v1.154A4.9,4.9,0,0,0,81.033,11.821Zm-.723-1.077v-.483q-1.153-.02-1.153.632a.472.472,0,0,0,.134.368.487.487,0,0,0,.34.122.7.7,0,0,0,.426-.145.595.595,0,0,0,.253-.493Z" transform="translate(-55.33 -7.249)" fill="#fff"/>
        <path id="Path_12306" data-name="Path 12306" d="M86.777,11.129h-.618l-.033-.5h-.019A1.042,1.042,0,0,1,85.1,11.2a1.18,1.18,0,0,1-.942-.445A1.733,1.733,0,0,1,83.785,9.6a1.817,1.817,0,0,1,.406-1.232,1.249,1.249,0,0,1,.967-.439.939.939,0,0,1,.883.426h.013v-1.8h.7v3.728Q86.753,10.742,86.777,11.129Zm-.722-1.322V9.284a1.025,1.025,0,0,0-.019-.219.794.794,0,0,0-.252-.422.685.685,0,0,0-.466-.171.715.715,0,0,0-.613.31,1.328,1.328,0,0,0-.223.793,1.238,1.238,0,0,0,.214.755.717.717,0,0,0,.609.309.671.671,0,0,0,.551-.258A.859.859,0,0,0,86.055,9.807Z" transform="translate(-57.115 -6.556)" fill="#fff"/>
        <path id="Path_12307" data-name="Path 12307" d="M95.7,10.228a1.719,1.719,0,0,1-.413,1.187,1.473,1.473,0,0,1-1.148.477,1.4,1.4,0,0,1-1.1-.458,1.669,1.669,0,0,1-.409-1.154,1.7,1.7,0,0,1,.422-1.193,1.465,1.465,0,0,1,1.139-.464A1.432,1.432,0,0,1,95.3,9.08,1.655,1.655,0,0,1,95.7,10.228Zm-.722.023a1.418,1.418,0,0,0-.187-.744.689.689,0,0,0-.626-.375.7.7,0,0,0-.639.375,1.437,1.437,0,0,0-.187.757,1.418,1.418,0,0,0,.187.744A.712.712,0,0,0,94.785,11,1.415,1.415,0,0,0,94.979,10.251Z" transform="translate(-60.079 -7.249)" fill="#fff"/>
        <path id="Path_12308" data-name="Path 12308" d="M101.5,11.82h-.7v-1.8q0-.83-.632-.83a.627.627,0,0,0-.5.228.806.806,0,0,0-.193.537V11.82h-.7V9.582q0-.413-.025-.9h.612l.033.49h.019a1.017,1.017,0,0,1,.361-.378,1.18,1.18,0,0,1,.632-.176,1,1,0,0,1,.729.284,1.377,1.377,0,0,1,.361,1.039Z" transform="translate(-62.129 -7.248)" fill="#fff"/>
        <path id="Path_12309" data-name="Path 12309" d="M108.974,8.848h-.767V10.37c0,.387.136.58.406.58a1.227,1.227,0,0,0,.311-.033l.018.529a1.566,1.566,0,0,1-.541.078.833.833,0,0,1-.644-.251,1.229,1.229,0,0,1-.233-.845V8.848h-.458V8.326h.458V7.751l.683-.206v.78h.767v.523Z" transform="translate(-64.915 -6.887)" fill="#fff"/>
        <path id="Path_12310" data-name="Path 12310" d="M114.112,11.129h-.7V9.347q0-.843-.631-.843a.665.665,0,0,0-.665.489.875.875,0,0,0-.033.251v1.885h-.7V6.556h.7V8.445h.013a1.053,1.053,0,0,1,.942-.515.971.971,0,0,1,.717.284,1.428,1.428,0,0,1,.354,1.051v1.864Z" transform="translate(-66.364 -6.556)" fill="#fff"/>
        <path id="Path_12311" data-name="Path 12311" d="M119.8,10.1a1.682,1.682,0,0,1-.026.316h-2.09a.914.914,0,0,0,.3.709,1.038,1.038,0,0,0,.684.219,2.309,2.309,0,0,0,.845-.148l.109.484a2.624,2.624,0,0,1-1.052.193,1.519,1.519,0,0,1-1.144-.429,1.58,1.58,0,0,1-.416-1.151,1.794,1.794,0,0,1,.387-1.18,1.333,1.333,0,0,1,1.1-.5,1.166,1.166,0,0,1,1.025.5A1.673,1.673,0,0,1,119.8,10.1Zm-.665-.18A.938.938,0,0,0,119,9.387a.609.609,0,0,0-.555-.291.662.662,0,0,0-.555.284,1.055,1.055,0,0,0-.207.542Z" transform="translate(-68.249 -7.246)" fill="#fff"/>
      </g>
    </g>
  </g>
</svg>
