<svg id="journal" xmlns="http://www.w3.org/2000/svg" width="50" height="50" viewBox="0 0 50 50">
  <path id="Path_22190" data-name="Path 22190" d="M40.625,50H9.375A9.374,9.374,0,0,1,0,40.625V9.375A9.374,9.374,0,0,1,9.375,0h31.25A9.374,9.374,0,0,1,50,9.375v31.25A9.374,9.374,0,0,1,40.625,50Z" fill="#deebff"/>
  <g id="Group_9892" data-name="Group 9892" transform="translate(15.625 15.625)">
    <path id="Path_22191" data-name="Path 22191" d="M15.469,16.25H10.781A.782.782,0,0,1,10,15.469V10.781A.782.782,0,0,1,10.781,10h4.688a.782.782,0,0,1,.781.781v4.688A.782.782,0,0,1,15.469,16.25Z" transform="translate(-10 -10)" fill="#4e8eff"/>
    <path id="Path_22192" data-name="Path 22192" d="M18.719,12.229h-2.6a.781.781,0,0,1,0-1.562h2.6a.781.781,0,0,1,0,1.563Z" transform="translate(-7 -9.625)" fill="#4e8eff"/>
    <path id="Path_22193" data-name="Path 22193" d="M18.719,14.229h-2.6a.781.781,0,0,1,0-1.562h2.6a.781.781,0,0,1,0,1.563Z" transform="translate(-7 -8.5)" fill="#4e8eff"/>
    <path id="Path_22194" data-name="Path 22194" d="M21.719,16.9H10.781a.781.781,0,0,1,0-1.562H21.719a.781.781,0,1,1,0,1.562Z" transform="translate(-10 -7)" fill="#4e8eff"/>
    <path id="Path_22195" data-name="Path 22195" d="M21.719,19.4H10.781a.781.781,0,0,1,0-1.562H21.719a.781.781,0,0,1,0,1.563Z" transform="translate(-10 -5.594)" fill="#4e8eff"/>
    <path id="Path_22196" data-name="Path 22196" d="M21.719,21.9H10.781a.781.781,0,0,1,0-1.562H21.719a.781.781,0,0,1,0,1.563Z" transform="translate(-10 -4.188)" fill="#4e8eff"/>
  </g>
  <path id="Path_22197" data-name="Path 22197" d="M29.875,11.125H27.792v19.5a2.079,2.079,0,0,1-1.042-1.792V11.125A3.128,3.128,0,0,0,23.625,8h-12.5A3.128,3.128,0,0,0,8,11.125V28.833A4.171,4.171,0,0,0,12.167,33H29.094a1.079,1.079,0,0,0,.258-.031A4.175,4.175,0,0,0,33,28.833V14.25A3.128,3.128,0,0,0,29.875,11.125ZM12.167,30.917a2.085,2.085,0,0,1-2.083-2.083V11.125a1.043,1.043,0,0,1,1.042-1.042h12.5a1.043,1.043,0,0,1,1.042,1.042V28.833a4.132,4.132,0,0,0,.559,2.083H12.167Z" transform="translate(4.5 4.5)" fill="#196cff"/>
</svg>
