<svg id="briefcase" xmlns="http://www.w3.org/2000/svg" width="50" height="50" viewBox="0 0 50 50">
  <path id="Path_22183" data-name="Path 22183" d="M40.625,50H9.375A9.374,9.374,0,0,1,0,40.625V9.375A9.374,9.374,0,0,1,9.375,0h31.25A9.374,9.374,0,0,1,50,9.375v31.25A9.374,9.374,0,0,1,40.625,50Z" fill="#e3f8fa"/>
  <path id="Path_22184" data-name="Path 22184" d="M20.626,14.021a1.043,1.043,0,0,1-1.042-1.042V11.416H15.416v1.563a1.042,1.042,0,0,1-2.084,0V11.416a2.085,2.085,0,0,1,2.083-2.083h4.167a2.085,2.085,0,0,1,2.083,2.083v1.563A1.037,1.037,0,0,1,20.626,14.021Z" transform="translate(7.499 5.25)" fill="#8ce1eb"/>
  <path id="Path_22185" data-name="Path 22185" d="M26.75,19.146V20.1a.781.781,0,1,1-1.562,0v-.958H15.813V20.1a.781.781,0,1,1-1.562,0v-.958H8v7.031a2.863,2.863,0,0,0,2.864,2.864h19.27A2.863,2.863,0,0,0,33,26.177V19.146Zm3.386-7.812H10.864A2.863,2.863,0,0,0,8,14.2v3.386h6.25v-1.3a.781.781,0,0,1,1.563,0v1.3h9.375v-1.3a.781.781,0,1,1,1.563,0v1.3H33V14.2A2.863,2.863,0,0,0,30.136,11.333Z" transform="translate(4.5 6.375)" fill="#26c6da"/>
</svg>
