<svg id="discussion_1_" data-name="discussion (1)" xmlns="http://www.w3.org/2000/svg" width="50" height="50" viewBox="0 0 50 50">
  <path id="Path_22198" data-name="Path 22198" d="M40.625,50H9.375A9.374,9.374,0,0,1,0,40.625V9.375A9.374,9.374,0,0,1,9.375,0h31.25A9.374,9.374,0,0,1,50,9.375v31.25A9.374,9.374,0,0,1,40.625,50Z" fill="#ffe6e2"/>
  <path id="Path_22199" data-name="Path 22199" d="M12.688,14.136V9.448a2.757,2.757,0,0,1,.1-.781H9.823A1.831,1.831,0,0,0,8,10.489v4.688A1.833,1.833,0,0,0,9.823,17h.386l1.333,1.77a.8.8,0,0,0,.594.313h.031a.74.74,0,0,0,.583-.27l1.563-1.781a3.422,3.422,0,0,1-1.625-2.9Z" transform="translate(4.5 4.875)" fill="#fd907e"/>
  <path id="Path_22200" data-name="Path 22200" d="M24.449,8.667H21.48a2.75,2.75,0,0,1,.1.781v4.687a3.42,3.42,0,0,1-1.625,2.9l1.563,1.781a.742.742,0,0,0,.583.27h.031a.8.8,0,0,0,.594-.312L24.054,17h.4a1.833,1.833,0,0,0,1.823-1.823V10.489a1.831,1.831,0,0,0-1.823-1.822Z" transform="translate(11.227 4.875)" fill="#fd907e"/>
  <path id="Path_22201" data-name="Path 22201" d="M18.25,18.417h-.03a.779.779,0,0,1-.6-.312L16.3,16.334H13.823A1.825,1.825,0,0,1,12,14.511V9.823A1.824,1.824,0,0,1,13.823,8h8.855A1.824,1.824,0,0,1,24.5,9.823v4.688a1.825,1.825,0,0,1-1.823,1.823h-2.25L18.837,18.15a.784.784,0,0,1-.588.267Z" transform="translate(6.75 4.5)" fill="#fd907e"/>
  <g id="Group_9897" data-name="Group 9897" transform="translate(12.5 24.48)">
    <circle id="Ellipse_1202" data-name="Ellipse 1202" cx="2.083" cy="2.083" r="2.083" transform="translate(2.084 1.563)" fill="#fc573b"/>
    <path id="Path_22202" data-name="Path 22202" d="M14.948,20.417a4.367,4.367,0,0,0-1.739,3.489v.261H8.781A.788.788,0,0,1,8,23.386v-.52A2.863,2.863,0,0,1,10.864,20h2.6a2.845,2.845,0,0,1,1.48.417Z" transform="translate(-8 -13.23)" fill="#fc573b"/>
    <circle id="Ellipse_1203" data-name="Ellipse 1203" cx="2.083" cy="2.083" r="2.083" transform="translate(18.75 1.563)" fill="#fc573b"/>
    <path id="Path_22203" data-name="Path 22203" d="M26.5,22.864v.52a.788.788,0,0,1-.781.781H21.293v-.259a4.364,4.364,0,0,0-1.739-3.489A2.835,2.835,0,0,1,21.032,20h2.6A2.863,2.863,0,0,1,26.5,22.864Z" transform="translate(-1.501 -13.23)" fill="#fc573b"/>
    <circle id="Ellipse_1204" data-name="Ellipse 1204" cx="3.125" cy="3.125" r="3.125" transform="translate(9.375)" fill="#fc573b"/>
    <path id="Path_22204" data-name="Path 22204" d="M20.927,20.667H15.2a2.867,2.867,0,0,0-2.864,2.864v1.563a.782.782,0,0,0,.781.781h9.9a.782.782,0,0,0,.781-.781V23.531A2.866,2.866,0,0,0,20.927,20.667Z" transform="translate(-5.563 -12.854)" fill="#fc573b"/>
  </g>
</svg>
