<svg id="contacts" xmlns="http://www.w3.org/2000/svg" width="50" height="50" viewBox="0 0 50 50">
  <path id="Path_22209" data-name="Path 22209" d="M40.625,50H9.375A9.374,9.374,0,0,1,0,40.625V9.375A9.374,9.374,0,0,1,9.375,0h31.25A9.374,9.374,0,0,1,50,9.375v31.25A9.374,9.374,0,0,1,40.625,50Z" fill="#f5e6fe"/>
  <path id="Path_22210" data-name="Path 22210" d="M30.136,8H10.864A2.867,2.867,0,0,0,8,10.864v19.27A2.867,2.867,0,0,0,10.864,33h19.27A2.867,2.867,0,0,0,33,30.136V10.864A2.867,2.867,0,0,0,30.136,8ZM27.792,26.142a1.616,1.616,0,0,1-.527,1.2,1.7,1.7,0,0,1-1.152.447c-.044,0-.087,0-.133,0A13.93,13.93,0,0,1,13.213,15.022a1.7,1.7,0,0,1,.441-1.266,1.636,1.636,0,0,1,1.2-.53l2.722-.02a1.656,1.656,0,0,1,1.612,1.248l.569,2.256a1.645,1.645,0,0,1-.614,1.723l-.848.631a10.241,10.241,0,0,0,3.587,3.6l.661-.875a1.658,1.658,0,0,1,1.723-.609l2.273.564a1.65,1.65,0,0,1,1.256,1.6v2.791Z" transform="translate(4.5 4.5)" fill="#be63f9"/>
</svg>
