<svg id="credit-card_5_" data-name="credit-card (5)" xmlns="http://www.w3.org/2000/svg" width="50" height="50" viewBox="0 0 50 50">
  <path id="Path_22128" data-name="Path 22128" d="M40.625,50H9.375A9.374,9.374,0,0,1,0,40.625V9.375A9.374,9.374,0,0,1,9.375,0h31.25A9.374,9.374,0,0,1,50,9.375v31.25A9.374,9.374,0,0,1,40.625,50Z" fill="#e3f8fa"/>
  <path id="Path_22129" data-name="Path 22129" d="M31.5,11.531a2.864,2.864,0,0,0-2.864-2.864h-15.1a2.864,2.864,0,0,0-2.864,2.864v.261H31.5Z" transform="translate(6 4.875)" fill="#8ce1eb"/>
  <path id="Path_22130" data-name="Path 22130" d="M10.667,11.333v2.083h13.8a4.953,4.953,0,0,1,4.948,4.948v3.281A2.864,2.864,0,0,0,31.5,18.886V11.335H10.667Z" transform="translate(6 6.375)" fill="#8ce1eb"/>
  <path id="Path_22131" data-name="Path 22131" d="M25.969,14h-15.1A2.867,2.867,0,0,0,8,16.864v8.855a2.867,2.867,0,0,0,2.864,2.864h15.1a2.867,2.867,0,0,0,2.864-2.864V16.864A2.867,2.867,0,0,0,25.969,14Zm-15.1,4.427a2.085,2.085,0,0,1,2.083-2.083h1.563a2.085,2.085,0,0,1,2.083,2.083v1.563a2.085,2.085,0,0,1-2.083,2.083H12.947a2.085,2.085,0,0,1-2.083-2.083Zm14.063,7.813H11.906a1.041,1.041,0,1,1,0-2.083h13.02a1.041,1.041,0,1,1,0,2.083Z" transform="translate(4.5 7.875)" fill="#26c6da"/>
</svg>
