<svg id="Google_Play_Store_badge_EN" xmlns="http://www.w3.org/2000/svg" xmlns:xlink="http://www.w3.org/1999/xlink" width="90.243" height="26.598" viewBox="0 0 90.243 26.598">
  <defs>
    <linearGradient id="linear-gradient" x1="2.472" y1="1.035" x2="2.361" y2="1.005" gradientUnits="objectBoundingBox">
      <stop offset="0" stop-color="#00a0ff"/>
      <stop offset="0.007" stop-color="#00a1ff"/>
      <stop offset="0.26" stop-color="#00beff"/>
      <stop offset="0.512" stop-color="#00d2ff"/>
      <stop offset="0.76" stop-color="#00dfff"/>
      <stop offset="1" stop-color="#00e3ff"/>
    </linearGradient>
    <linearGradient id="linear-gradient-2" x1="1.95" y1="1.879" x2="1.69" y2="1.879" gradientUnits="objectBoundingBox">
      <stop offset="0" stop-color="#ffe000"/>
      <stop offset="0.409" stop-color="#ffbd00"/>
      <stop offset="0.775" stop-color="orange"/>
      <stop offset="1" stop-color="#ff9c00"/>
    </linearGradient>
    <linearGradient id="linear-gradient-3" x1="1.926" y1="0.946" x2="1.835" y2="0.793" gradientUnits="objectBoundingBox">
      <stop offset="0" stop-color="#ff3a44"/>
      <stop offset="1" stop-color="#c31162"/>
    </linearGradient>
    <linearGradient id="linear-gradient-4" x1="1.856" y1="2.093" x2="1.897" y2="2.025" gradientUnits="objectBoundingBox">
      <stop offset="0" stop-color="#32a071"/>
      <stop offset="0.068" stop-color="#2da771"/>
      <stop offset="0.476" stop-color="#15cf74"/>
      <stop offset="0.801" stop-color="#06e775"/>
      <stop offset="1" stop-color="#00f076"/>
    </linearGradient>
  </defs>
  <path id="Path_12312" data-name="Path 12312" d="M86.9,26.6H3.344A3.343,3.343,0,0,1,0,23.273V3.325A3.339,3.339,0,0,1,3.344,0H86.9a3.34,3.34,0,0,1,3.344,3.325V23.273A3.344,3.344,0,0,1,86.9,26.6Z" transform="translate(0)" fill-rule="evenodd"/>
  <path id="Path_12313" data-name="Path 12313" d="M86.9.532A2.809,2.809,0,0,1,89.71,3.325V23.273A2.8,2.8,0,0,1,86.9,26.066H3.344A2.809,2.809,0,0,1,.533,23.273V3.325A2.8,2.8,0,0,1,3.344.532ZM86.9,0H3.344A3.343,3.343,0,0,0,0,3.325V23.273A3.339,3.339,0,0,0,3.344,26.6H86.9a3.34,3.34,0,0,0,3.344-3.325V3.325A3.344,3.344,0,0,0,86.9,0Z" transform="translate(0)" fill="#a6a6a6" fill-rule="evenodd"/>
  <path id="Path_12314" data-name="Path 12314" d="M1674.376,275.6a2.027,2.027,0,0,1-1.512-.625,2.127,2.127,0,0,1-.611-1.526,2.08,2.08,0,0,1,.611-1.524,2.021,2.021,0,0,1,1.511-.625,2.048,2.048,0,0,1,1.512.625,2.206,2.206,0,0,1,0,3.048A2.01,2.01,0,0,1,1674.376,275.6Zm-17.931,0a2.1,2.1,0,0,1-1.519-.617,2.149,2.149,0,0,1,1.519-3.681,2.119,2.119,0,0,1,.848.176,1.717,1.717,0,0,1,.646.461l.04.048-.45.441-.047-.055a1.279,1.279,0,0,0-1.044-.449,1.444,1.444,0,0,0-1.041.424,1.611,1.611,0,0,0,0,2.209,1.523,1.523,0,0,0,2.11,0,1.148,1.148,0,0,0,.306-.691h-1.443v-.62h2.062l.008.056a2.261,2.261,0,0,1,.03.312,1.866,1.866,0,0,1-.515,1.376A2.01,2.01,0,0,1,1656.445,275.6Zm23.842-.088h-.636L1677.7,272.4l.017.56v2.55h-.636V271.39h.726l.02.031,1.831,2.932-.017-.559v-2.4h.643Zm-10.688,0h-.644v-3.5h-1.117v-.62h2.877v.62H1669.6v3.5Zm-2.286,0h-.643V271.39h.643Zm-3.611,0h-.642v-3.5h-1.117v-.62h2.877v.62H1663.7Zm-2.166-.007h-2.464V271.39h2.464v.62h-1.82v1.131h1.642v.614h-1.642v1.131h1.82Zm11.8-.957a1.423,1.423,0,0,0,1.041.431,1.386,1.386,0,0,0,1.041-.431,1.632,1.632,0,0,0,0-2.2,1.425,1.425,0,0,0-1.041-.431,1.38,1.38,0,0,0-1.039.431,1.635,1.635,0,0,0,0,2.2Z" transform="translate(-1626.836 -266.801)" fill="#fff"/>
  <path id="Path_12315" data-name="Path 12315" d="M1664.719,686.141a2.829,2.829,0,1,0,2.84,2.829A2.786,2.786,0,0,0,1664.719,686.141Zm0,4.537a1.719,1.719,0,1,1,1.6-1.715A1.638,1.638,0,0,1,1664.719,690.678Zm-6.2-4.537a2.829,2.829,0,1,0,2.841,2.829A2.786,2.786,0,0,0,1658.522,686.141Zm0,4.537a1.719,1.719,0,1,1,1.6-1.715A1.638,1.638,0,0,1,1658.522,690.678ZM1651.147,687v1.2h2.877a2.522,2.522,0,0,1-.651,1.507,2.938,2.938,0,0,1-2.22.879,3.192,3.192,0,0,1,0-6.384,3.073,3.073,0,0,1,2.167.857l.85-.849a4.182,4.182,0,0,0-3.01-1.212,4.39,4.39,0,1,0,0,8.779,4.026,4.026,0,0,0,3.07-1.234,3.97,3.97,0,0,0,1.043-2.807,3.7,3.7,0,0,0-.066-.746h-4.061S1651.147,687,1651.147,687Zm30.163.932a2.631,2.631,0,0,0-2.425-1.8,2.689,2.689,0,0,0-2.67,2.829,2.767,2.767,0,0,0,2.811,2.829,2.812,2.812,0,0,0,2.359-1.255l-.961-.643a1.611,1.611,0,0,1-1.391.783,1.447,1.447,0,0,1-1.376-.857l3.787-1.567S1681.311,687.937,1681.311,687.937Zm-3.861.945a1.553,1.553,0,0,1,1.479-1.648,1.092,1.092,0,0,1,1.051.6Zm-3.076,2.741h1.243v-8.311h-1.243Zm-2.042-4.854h-.045a1.963,1.963,0,0,0-1.494-.635,2.829,2.829,0,0,0,0,5.653,1.957,1.957,0,0,0,1.494-.643h.045v.406c0,1.08-.578,1.662-1.509,1.662a1.57,1.57,0,0,1-1.428-1l-1.081.451a2.7,2.7,0,0,0,2.507,1.67c1.458,0,2.693-.857,2.693-2.948V686.3h-1.176v.466Zm-1.428,3.908a1.72,1.72,0,0,1,0-3.428,1.591,1.591,0,0,1,1.509,1.721A1.571,1.571,0,0,1,1670.9,690.678Zm16.23-7.366h-2.973v8.311h1.243v-3.147h1.731a2.586,2.586,0,1,0,0-5.164Zm.037,4H1685.4v-2.852h1.768a1.426,1.426,0,1,1,0,2.852Zm7.678-1.189a2.343,2.343,0,0,0-2.22,1.27l1.1.458a1.183,1.183,0,0,1,1.132-.614,1.2,1.2,0,0,1,1.31,1.071v.088a2.788,2.788,0,0,0-1.295-.318c-1.19,0-2.4.65-2.4,1.869a1.922,1.922,0,0,0,2.064,1.832,1.751,1.751,0,0,0,1.582-.812h.045v.643h1.2v-3.184A2.279,2.279,0,0,0,1694.848,686.126Zm-.156,4.552c-.407,0-.976-.2-.976-.71,0-.643.711-.887,1.317-.887a2.16,2.16,0,0,1,1.132.28A1.5,1.5,0,0,1,1694.692,690.678Zm7.051-4.374-1.428,3.6h-.045l-1.479-3.6h-1.338l2.22,5.039-1.265,2.8h1.295l3.415-7.84Zm-11.193,5.32h1.244v-8.311h-1.244Z" transform="translate(-1619.362 -671.674)" fill="#fff" fill-rule="evenodd"/>
  <path id="Path_12316" data-name="Path 12316" d="M400.4,299.445a1.346,1.346,0,0,0-.3.939v14.7a1.281,1.281,0,0,0,.31.93l.051.045,8.248-8.238v-.184l-8.254-8.24Z" transform="translate(-393.458 -294.435)" fill-rule="evenodd" fill="url(#linear-gradient)"/>
  <path id="Path_12317" data-name="Path 12317" d="M921.051,636.188,918.3,633.44v-.192l2.751-2.748.06.036,3.254,1.847a1.009,1.009,0,0,1,0,1.92l-3.254,1.847Z" transform="translate(-903.055 -620.045)" fill-rule="evenodd" fill="url(#linear-gradient-2)"/>
  <path id="Path_12318" data-name="Path 12318" d="M429.51,804.807,426.7,802l-8.3,8.289a1.09,1.09,0,0,0,1.383.045l9.727-5.527" transform="translate(-411.454 -788.701)" fill-rule="evenodd" fill="url(#linear-gradient-3)"/>
  <path id="Path_12319" data-name="Path 12319" d="M429.51,292.222l-9.727-5.519a1.08,1.08,0,0,0-1.383.045l8.3,8.281Z" transform="translate(-411.454 -281.73)" fill-rule="evenodd" fill="url(#linear-gradient-4)"/>
  <path id="Path_12320" data-name="Path 12320" d="M429.843,967.7l-9.66,5.482a1.1,1.1,0,0,1-1.331.007l-.051.052.051.045a1.1,1.1,0,0,0,1.331-.007l9.727-5.519Z" transform="translate(-411.847 -951.654)" fill-rule="evenodd" opacity="0.2"/>
  <path id="Path_12321" data-name="Path 12321" d="M1086.822,802.864l-3.322,1.884.06.06,3.254-1.847a1.165,1.165,0,0,0,.7-.96A1.2,1.2,0,0,1,1086.822,802.864Z" transform="translate(-1065.512 -788.701)" fill-rule="evenodd" opacity="0.12"/>
  <path id="Path_12322" data-name="Path 12322" d="M401.787,286.627l12.981,7.366a1.222,1.222,0,0,1,.7.864,1.165,1.165,0,0,0-.7-.96l-12.981-7.366c-.931-.532-1.687-.088-1.687.975v.1C400.1,286.538,400.855,286.1,401.787,286.627Z" transform="translate(-393.458 -281.558)" fill="#fff" fill-rule="evenodd" opacity="0.25"/>
</svg>
