<svg id="investment" xmlns="http://www.w3.org/2000/svg" width="50" height="50" viewBox="0 0 50 50">
  <path id="Path_22148" data-name="Path 22148" d="M40.625,50H9.375A9.374,9.374,0,0,1,0,40.625V9.375A9.374,9.374,0,0,1,9.375,0h31.25A9.374,9.374,0,0,1,50,9.375v31.25A9.374,9.374,0,0,1,40.625,50Z" fill="#e6ffed"/>
  <path id="Path_22149" data-name="Path 22149" d="M22.419,10.7a.779.779,0,0,0-1.038-.38A7.539,7.539,0,0,0,17.248,15.4a4.983,4.983,0,0,0-3.675-1.631.781.781,0,0,0,0,1.563,3.452,3.452,0,0,1,3.448,3.448V20.8a.781.781,0,0,0,1.563,0V17.154a5.988,5.988,0,0,1,3.453-5.416A.781.781,0,0,0,22.419,10.7Z" transform="translate(7.196 5.763)" fill="#12c242"/>
  <path id="Path_22150" data-name="Path 22150" d="M22.677,16.667H13.822A1.825,1.825,0,0,0,12,18.49v1.3a1.481,1.481,0,0,0,1.042,1.439V26.3a1.825,1.825,0,0,0,1.823,1.823h6.77A1.825,1.825,0,0,0,23.458,26.3V21.172A1.82,1.82,0,0,0,24.5,19.531V18.489A1.824,1.824,0,0,0,22.677,16.667Z" transform="translate(6.749 9.375)" fill="#0b9029"/>
  <g id="Group_9871" data-name="Group 9871" transform="translate(12.5 12.5)">
    <path id="Path_22151" data-name="Path 22151" d="M26.042,16.333h-6.25a1.041,1.041,0,1,1,0-2.083h6.25V10.083H17.709a1.041,1.041,0,1,1,0-2.083H26.04a2.086,2.086,0,0,1,2.084,2.083V14.25A2.085,2.085,0,0,1,26.042,16.333Z" transform="translate(-3.125 -8)" fill="#12c242"/>
    <path id="Path_22152" data-name="Path 22152" d="M22.156,11.9H21.114a.781.781,0,0,1,0-1.562h1.042a.781.781,0,0,1,0,1.563Z" transform="translate(-1.063 -6.688)" fill="#12c242"/>
    <path id="Path_22153" data-name="Path 22153" d="M16.073,18.333H10.083A2.085,2.085,0,0,1,8,16.25V12.083A2.085,2.085,0,0,1,10.083,10h8.073a1.042,1.042,0,0,1,0,2.084H10.083V16.25h5.989a1.041,1.041,0,0,1,0,2.083Z" transform="translate(-8 -6.875)" fill="#12c242"/>
    <path id="Path_22154" data-name="Path 22154" d="M11.823,13.563H10.781a.781.781,0,0,1,0-1.562h1.042a.781.781,0,0,1,0,1.563Z" transform="translate(-6.875 -5.75)" fill="#12c242"/>
  </g>
</svg>
