<svg xmlns="http://www.w3.org/2000/svg" width="97.756" height="23.813" viewBox="0 0 97.756 23.813">
  <g id="Group_9857" data-name="Group 9857" transform="translate(-80 -411.996)">
    <g id="Group-8751-Copy" transform="translate(80 411.996)">
      <g id="Group_8750" transform="translate(27.853)">
        <path id="Path_1" d="M24.507,18.491V11.03A4.846,4.846,0,0,1,27.54,6.408,7.749,7.749,0,0,1,30.6,6.18V9.1c-.148,0-1.142-.025-1.284,0a2.086,2.086,0,0,0-2.061,2.267v7.124Z" fill="#5d2ece"/>
        <path id="Path_2" d="M54,6.435C50.134,4.7,45.942,7.674,45.9,12.229a7.561,7.561,0,0,0,.417,2.471,5.686,5.686,0,0,0,10.822.024A6.551,6.551,0,0,0,54,6.435ZM51.734,15.9a2.881,2.881,0,0,1-2.291-1.17,3.867,3.867,0,0,1,.23-5.051c1.543-1.61,4.031-1.064,4.905,1.213a3.9,3.9,0,0,1-.553,3.838,2.879,2.879,0,0,1-2.291,1.17Z" fill="#5d2ece" fill-rule="evenodd"/>
        <path id="Path_3" d="M59.133,18.491V11.513a5.389,5.389,0,1,1,10.77,0v7h-2.7v-6.95a2.693,2.693,0,1,0-5.374,0v6.928Z" fill="#5d2ece"/>
        <path id="Path_4" d="M44.418,12.153v-.105a8.355,8.355,0,0,0-.406-2.14,5.352,5.352,0,0,0-5.178-3.794H36.416V9.234h2.372a2.81,2.81,0,0,1,2.867,2.813h-.01c0,.067.007.134.007.2a3.663,3.663,0,0,1-.967,2.519,3.161,3.161,0,0,1-2.349,1.023c-1.823-.025-3.293-1.631-3.293-3.872V0H32.287V11.994c0,4.048,2.464,6.695,6.065,6.672a6.048,6.048,0,0,0,6.059-5.97h.012C44.429,12.518,44.426,12.336,44.418,12.153Z" fill="#5d2ece"/>
        <path id="Path_5" d="M10.589,12.489V12.6A8.364,8.364,0,0,0,11,14.736a5.353,5.353,0,0,0,5.178,3.792h2.418V15.409H16.219A2.811,2.811,0,0,1,13.352,12.6h.01c0-.067-.007-.134-.007-.2a3.663,3.663,0,0,1,.968-2.518,3.161,3.161,0,0,1,2.348-1.023c1.823.025,3.293,1.631,3.293,3.872V18.49h2.748V12.648c0-4.051-2.464-6.695-6.065-6.674a6.049,6.049,0,0,0-6.059,5.972C10.6,11.946,10.581,12.306,10.589,12.489Z" fill="#5d2ece"/>
        <path id="Path_6" d="M9.249,15.407H5.577A2.822,2.822,0,0,1,2.737,12.3a2.8,2.8,0,0,1,2.84-3.029H9.249V6.191H5.528c-3.927,0-6.6,3.985-5.113,8.552a5.294,5.294,0,0,0,5.113,3.748H9.249Z" fill="#5d2ece"/>
      </g>
      <g id="Group_8749">
        <path id="Path_7" d="M20.533,5.953H13.688l6.845,11.906Z" fill="#b48cfc"/>
        <path id="Path_8" d="M20.532,5.953,10.266,0l3.421,5.953Z" fill="#5d2ece"/>
        <path id="Path_9" d="M13.689,5.954,10.267,0,0,5.953H13.689Z" fill="#b48cfc"/>
        <path id="Path_10" d="M0,17.859H6.845L0,5.953Z" fill="#b48cfc"/>
        <path id="Path_11" d="M0,17.859l10.267,5.954L6.845,17.859Z" fill="#5d2ece"/>
        <path id="Path_12" d="M6.844,17.859l3.423,5.954,10.267-5.954Z" fill="#b48cfc"/>
      </g>
    </g>
  </g>
</svg>
