<svg id="media-player" xmlns="http://www.w3.org/2000/svg" width="50" height="50" viewBox="0 0 50 50">
  <path id="Path_22175" data-name="Path 22175" d="M40.625,50H9.375A9.374,9.374,0,0,1,0,40.625V9.375A9.374,9.374,0,0,1,9.375,0h31.25A9.374,9.374,0,0,1,50,9.375v31.25A9.374,9.374,0,0,1,40.625,50Z" fill="#ffe6e2"/>
  <path id="Path_22176" data-name="Path 22176" d="M40.625,50H9.375A9.374,9.374,0,0,1,0,40.625V9.375A9.374,9.374,0,0,1,9.375,0h31.25A9.374,9.374,0,0,1,50,9.375v31.25A9.374,9.374,0,0,1,40.625,50Z" fill="#ffedf5"/>
  <g id="Group_9889" data-name="Group 9889" transform="translate(12.5 12.5)">
    <path id="Path_22177" data-name="Path 22177" d="M24.917,11.813a2.593,2.593,0,1,0-1.1,1.1l1.1,1.1a.781.781,0,1,0,1.1-1.1ZM22.6,11.645A1.041,1.041,0,1,1,23.647,10.6,1.045,1.045,0,0,1,22.6,11.645Z" transform="translate(-1.25 -8)" fill="#e31c79"/>
    <path id="Path_22178" data-name="Path 22178" d="M9.823,14.25h13.02a1.825,1.825,0,0,0,1.823-1.823v-2.6A1.825,1.825,0,0,0,22.844,8H9.823A1.824,1.824,0,0,0,8,9.823v2.6A1.824,1.824,0,0,0,9.823,14.25Z" transform="translate(-8 -8)" fill="#e31c79"/>
    <path id="Path_22179" data-name="Path 22179" d="M28.177,13.333H15.156a1.833,1.833,0,0,0-1.823,1.823v13.02A1.833,1.833,0,0,0,15.156,30h13.02A1.833,1.833,0,0,0,30,28.177V15.156A1.833,1.833,0,0,0,28.177,13.333Zm-2.77,8.511-5.73,2.864a.884.884,0,0,1-.355.083.809.809,0,0,1-.406-.114.773.773,0,0,1-.375-.667V18.281a.777.777,0,0,1,.375-.667.764.764,0,0,1,.761-.031l5.73,2.864a.785.785,0,0,1,0,1.4Z" transform="translate(-5 -5)" fill="#e31c79"/>
    <circle id="Ellipse_1198" data-name="Ellipse 1198" cx="3.125" cy="3.125" r="3.125" transform="translate(0 8.333)" fill="#e31c79"/>
  </g>
  <g id="Group_9890" data-name="Group 9890" transform="translate(12.5 29.167)">
    <path id="Path_22180" data-name="Path 22180" d="M8.781,22.229h4.688a.781.781,0,0,0,0-1.562H8.781a.781.781,0,0,0,0,1.563Z" transform="translate(-8 -17.542)" fill="#eda7c8"/>
    <path id="Path_22181" data-name="Path 22181" d="M8.781,24.229h4.688a.781.781,0,0,0,0-1.562H8.781a.781.781,0,0,0,0,1.563Z" transform="translate(-8 -16.417)" fill="#eda7c8"/>
    <path id="Path_22182" data-name="Path 22182" d="M8.781,20.229h4.688a.781.781,0,0,0,0-1.562H8.781a.781.781,0,0,0,0,1.563Z" transform="translate(-8 -18.667)" fill="#eda7c8"/>
  </g>
</svg>
