<svg id="coins" xmlns="http://www.w3.org/2000/svg" width="50" height="50" viewBox="0 0 50 50">
  <g id="Layer_2">
    <path id="Path_22137" data-name="Path 22137" d="M40.625,50H9.375A9.374,9.374,0,0,1,0,40.625V9.375A9.374,9.374,0,0,1,9.375,0h31.25A9.374,9.374,0,0,1,50,9.375v31.25A9.374,9.374,0,0,1,40.625,50Z" fill="#ffedf5"/>
  </g>
  <g id="solid" transform="translate(12.498 12.5)">
    <g id="Group_9868" data-name="Group 9868">
      <ellipse id="Ellipse_1197" data-name="Ellipse 1197" cx="8.855" cy="3.645" rx="8.855" ry="3.645" transform="translate(0.002)" fill="#e31c79"/>
      <path id="Path_22138" data-name="Path 22138" d="M15.719,18.122a9.962,9.962,0,0,1,3.014-3.7c-.622.053-1.25.089-1.88.089-3.448,0-6.917-.8-8.855-2.341V14.51c0,1.855,3.369,3.383,7.72,3.613Z" transform="translate(-7.999 -5.655)" fill="#e31c79"/>
      <path id="Path_22139" data-name="Path 22139" d="M14.77,20.447a9.848,9.848,0,0,1,.378-2.678C12.3,17.55,9.616,16.789,8,15.5v2.341c0,1.725,2.911,3.166,6.819,3.545C14.789,21.077,14.77,20.764,14.77,20.447Z" transform="translate(-7.998 -3.78)" fill="#e31c79"/>
    </g>
    <g id="Group_9869" data-name="Group 9869" transform="translate(8.336 8.333)">
      <path id="Path_22140" data-name="Path 22140" d="M21.667,13.333A8.333,8.333,0,1,0,30,21.667,8.344,8.344,0,0,0,21.667,13.333Z" transform="translate(-13.334 -13.333)" fill="#eda7c8"/>
    </g>
  </g>
</svg>
