<svg xmlns="http://www.w3.org/2000/svg" width="215.119" height="61.717" viewBox="0 0 215.119 61.717">
  <g id="Group_9862" data-name="Group 9862" transform="translate(-977.434 -11239.437)">
    <path id="Path_219" data-name="Path 219" d="M423.239,340.885a6.188,6.188,0,0,1-6.187,6.187H214.323a6.194,6.194,0,0,1-6.2-6.187V291.551a6.2,6.2,0,0,1,6.2-6.2h202.72a6.2,6.2,0,0,1,6.194,6.194v0l0,49.335Z" transform="translate(769.313 10954.081)" fill="#fff"/>
    <path id="Path_222" data-name="Path 222" d="M245.088,311.278a9.358,9.358,0,0,1,4.461-7.855,9.59,9.59,0,0,0-7.555-4.083c-3.18-.335-6.262,1.9-7.881,1.9-1.651,0-4.143-1.868-6.831-1.814a10.057,10.057,0,0,0-8.465,5.163c-3.663,6.335-.932,15.648,2.576,20.771,1.756,2.51,3.806,5.309,6.49,5.21,2.626-.107,3.6-1.672,6.773-1.672,3.141,0,4.062,1.672,6.8,1.61,2.819-.045,4.592-2.52,6.286-5.052a20.648,20.648,0,0,0,2.875-5.852,9.059,9.059,0,0,1-5.526-8.325Zm-5.17-15.309a9.221,9.221,0,0,0,2.11-6.606,9.41,9.41,0,0,0-6.073,3.141,8.777,8.777,0,0,0-2.164,6.361,7.757,7.757,0,0,0,6.127-2.9Z" transform="translate(779.586 10958.678)" fill="#0f0821"/>
    <path id="Path_224" data-name="Path 224" d="M257.536,320.042h-3.669l-2.009-6.314h-6.988l-1.915,6.314h-3.57l6.921-21.5h4.277l6.954,21.5Zm-6.286-8.963-1.816-5.612q-.29-.86-1.084-4.051h-.064q-.322,1.372-1.022,4.051l-1.786,5.612Zm24.055,1.024a8.776,8.776,0,0,1-2.149,6.249,6.3,6.3,0,0,1-4.779,2.042,4.782,4.782,0,0,1-4.427-2.2v8.132H260.5V309.636q0-2.483-.127-5.094h3.029L263.6,307h.067a6.128,6.128,0,0,1,9.809-.61,8.572,8.572,0,0,1,1.831,5.713Zm-3.51.125a6.4,6.4,0,0,0-1.02-3.733,3.533,3.533,0,0,0-3-1.529,3.581,3.581,0,0,0-2.312.844,3.922,3.922,0,0,0-1.355,2.218,4.47,4.47,0,0,0-.161,1.05v2.585a4.15,4.15,0,0,0,1.037,2.857,3.446,3.446,0,0,0,2.7,1.164,3.534,3.534,0,0,0,3.029-1.5A6.6,6.6,0,0,0,271.8,312.228Zm21.342-.125a8.776,8.776,0,0,1-2.149,6.249,6.3,6.3,0,0,1-4.779,2.042,4.788,4.788,0,0,1-4.429-2.2v8.132h-3.444V309.636q0-2.483-.129-5.094h3.031L281.43,307h.064a6.13,6.13,0,0,1,9.811-.61,8.584,8.584,0,0,1,1.831,5.713Zm-3.51.125a6.4,6.4,0,0,0-1.022-3.733,3.53,3.53,0,0,0-3-1.529,3.6,3.6,0,0,0-2.314.844,3.934,3.934,0,0,0-1.355,2.218,4.6,4.6,0,0,0-.161,1.05v2.585a4.169,4.169,0,0,0,1.035,2.857,3.454,3.454,0,0,0,2.7,1.164,3.526,3.526,0,0,0,3.029-1.5A6.6,6.6,0,0,0,289.627,312.228Zm23.45,1.786a5.744,5.744,0,0,1-1.913,4.465,8.471,8.471,0,0,1-5.857,1.883,10.218,10.218,0,0,1-5.567-1.34l.8-2.87a9.574,9.574,0,0,0,4.977,1.34,4.7,4.7,0,0,0,3.029-.876,2.87,2.87,0,0,0,1.086-2.342,3.007,3.007,0,0,0-.9-2.2,8.289,8.289,0,0,0-2.965-1.657q-5.648-2.106-5.651-6.157a5.436,5.436,0,0,1,1.994-4.337,7.89,7.89,0,0,1,5.281-1.692,10.427,10.427,0,0,1,4.88,1.022l-.863,2.806a8.541,8.541,0,0,0-4.133-.987,4.194,4.194,0,0,0-2.849.893,2.55,2.55,0,0,0-.865,1.947,2.637,2.637,0,0,0,.99,2.106,11.192,11.192,0,0,0,3.126,1.657,10.593,10.593,0,0,1,4.083,2.613,5.453,5.453,0,0,1,1.312,3.729Zm11.417-6.887h-3.8v7.527q0,2.869,2.009,2.868a5.986,5.986,0,0,0,1.529-.161l.1,2.617a7.815,7.815,0,0,1-2.679.38,4.123,4.123,0,0,1-3.19-1.245,6.107,6.107,0,0,1-1.149-4.178V307.12h-2.263v-2.585h2.263V301.7l3.383-1.02v3.858h3.8v2.591Zm17.1,5.039a8.493,8.493,0,0,1-2.042,5.867,7.279,7.279,0,0,1-5.678,2.362,6.941,6.941,0,0,1-5.44-2.263,8.244,8.244,0,0,1-2.027-5.708,8.427,8.427,0,0,1,2.091-5.9,7.235,7.235,0,0,1,5.631-2.3,7.088,7.088,0,0,1,5.485,2.263,8.135,8.135,0,0,1,1.979,5.674Zm-3.57.079a6.937,6.937,0,0,0-.923-3.658,3.41,3.41,0,0,0-3.1-1.846,3.457,3.457,0,0,0-3.158,1.846,7.047,7.047,0,0,0-.925,3.723,6.906,6.906,0,0,0,.925,3.658,3.534,3.534,0,0,0,6.226-.03,6.966,6.966,0,0,0,.951-3.693Zm14.772-4.674a5.936,5.936,0,0,0-1.086-.094,3.253,3.253,0,0,0-2.808,1.372,5.177,5.177,0,0,0-.859,3.061v8.132h-3.446V309.424q.006-2.441-.1-4.88h3l.127,2.967h.094a5.332,5.332,0,0,1,1.722-2.458,4.183,4.183,0,0,1,2.49-.831,5.458,5.458,0,0,1,.861.064l0,3.285ZM368.2,311.56a8.087,8.087,0,0,1-.127,1.561H357.74a4.492,4.492,0,0,0,1.5,3.512,5.123,5.123,0,0,0,3.379,1.082,11.435,11.435,0,0,0,4.182-.732l.541,2.389a12.942,12.942,0,0,1-5.2.958,7.533,7.533,0,0,1-5.663-2.119,7.834,7.834,0,0,1-2.057-5.691,8.883,8.883,0,0,1,1.915-5.835,6.6,6.6,0,0,1,5.421-2.486,5.778,5.778,0,0,1,5.075,2.486,8.361,8.361,0,0,1,1.367,4.876Zm-3.285-.893a4.65,4.65,0,0,0-.67-2.647,3.007,3.007,0,0,0-2.744-1.438,3.264,3.264,0,0,0-2.741,1.4,5.144,5.144,0,0,0-1.02,2.677l7.175,0Z" transform="translate(805.167 10968.772)" fill="#0f0821"/>
    <path id="Path_225" data-name="Path 225" d="M242.8,300.823a21.96,21.96,0,0,1-2.475-.124V290.305a18.653,18.653,0,0,1,2.915-.221c3.95,0,5.771,1.945,5.771,5.112C249.009,298.85,246.86,300.823,242.8,300.823Zm.58-9.405a6.927,6.927,0,0,0-1.363.11v7.9a8.971,8.971,0,0,0,1.144.047c2.587,0,4.062-1.473,4.062-4.231C247.221,292.783,245.888,291.417,243.378,291.417Zm11.3,9.485a3.626,3.626,0,0,1-3.671-3.918,3.712,3.712,0,0,1,3.8-4.03,3.6,3.6,0,0,1,3.669,3.905,3.732,3.732,0,0,1-3.793,4.042Zm.064-6.709c-1.224,0-2.007,1.144-2.007,2.742,0,1.569.8,2.714,1.99,2.714s1.99-1.224,1.99-2.746c0-1.55-.784-2.709-1.973-2.709Zm16.426-1.082-2.383,7.619h-1.552l-.988-3.308c-.245-.809-.449-1.632-.612-2.46H265.6a16.435,16.435,0,0,1-.612,2.46l-1.05,3.308h-1.569l-2.241-7.619h1.739l.863,3.622q.306,1.295.517,2.445h.032c.125-.64.328-1.441.627-2.428l1.082-3.637h1.38l1.037,3.56c.249.863.453,1.709.612,2.508h.045a21.873,21.873,0,0,1,.517-2.508l.925-3.56,1.662,0Zm8.774,7.619h-1.694v-4.375c0-1.346-.517-2.022-1.535-2.022a1.758,1.758,0,0,0-1.694,1.866v4.532h-1.694v-5.44c0-.674-.015-1.4-.062-2.179h1.49l.077,1.174h.047a2.741,2.741,0,0,1,2.415-1.331c1.6,0,2.651,1.224,2.651,3.214l0,4.562Zm4.669,0h-1.7V289.616h1.7Zm6.174.172a3.627,3.627,0,0,1-3.671-3.918,3.712,3.712,0,0,1,3.8-4.03,3.6,3.6,0,0,1,3.669,3.905,3.73,3.73,0,0,1-3.793,4.042Zm.062-6.709c-1.224,0-2.007,1.144-2.007,2.742,0,1.569.8,2.714,1.99,2.714s1.99-1.224,1.99-2.746c0-1.55-.781-2.709-1.973-2.709Zm10.406,6.537-.122-.878h-.045a2.6,2.6,0,0,1-2.229,1.05,2.213,2.213,0,0,1-2.333-2.241c0-1.881,1.629-2.853,4.452-2.853v-.14c0-1-.532-1.5-1.582-1.5a3.568,3.568,0,0,0-1.99.565l-.343-1.114a4.879,4.879,0,0,1,2.615-.659c1.99,0,3,1.052,3,3.152v2.806a11.4,11.4,0,0,0,.109,1.821l-1.529,0Zm-.232-3.8c-1.881,0-2.823.457-2.823,1.537a1.078,1.078,0,0,0,1.161,1.189,1.62,1.62,0,0,0,1.662-1.55Zm9.871,3.8-.077-1.224h-.047a2.555,2.555,0,0,1-2.447,1.4c-1.836,0-3.2-1.614-3.2-3.888,0-2.383,1.411-4.06,3.336-4.06a2.29,2.29,0,0,1,2.149,1.035h.034v-4.373h1.694v9.06c0,.739.019,1.428.064,2.055Zm-.249-4.483a1.842,1.842,0,0,0-1.784-1.975c-1.256,0-2.022,1.112-2.022,2.679,0,1.535.8,2.587,1.988,2.587a1.9,1.9,0,0,0,1.818-2.022v-1.269Zm12.441,4.654a3.627,3.627,0,0,1-3.669-3.918,3.712,3.712,0,0,1,3.8-4.03,3.6,3.6,0,0,1,3.669,3.905,3.732,3.732,0,0,1-3.8,4.042Zm.062-6.709c-1.222,0-2.005,1.144-2.005,2.742,0,1.569.8,2.714,1.99,2.714s1.99-1.224,1.99-2.746c0-1.55-.781-2.709-1.975-2.709Zm12.838,6.537h-1.694v-4.375c0-1.346-.517-2.022-1.537-2.022a1.758,1.758,0,0,0-1.692,1.866v4.532H329.37v-5.44c0-.674-.017-1.4-.064-2.179h1.49l.08,1.174h.047a2.735,2.735,0,0,1,2.413-1.331c1.6,0,2.651,1.222,2.651,3.212Zm11.393-6.348h-1.864v3.7c0,.94.326,1.411.985,1.411a3.454,3.454,0,0,0,.751-.077l.047,1.284a3.73,3.73,0,0,1-1.314.191c-1.333,0-2.132-.739-2.132-2.666v-3.841h-1.112v-1.271h1.112v-1.4l1.662-.5v1.9h1.864v1.271Zm8.963,6.348h-1.692v-4.343c0-1.363-.515-2.052-1.535-2.052a1.662,1.662,0,0,0-1.7,1.8v4.592h-1.692V289.616h1.692v4.577h.034a2.566,2.566,0,0,1,2.291-1.239c1.612,0,2.6,1.254,2.6,3.244v4.532Zm9.184-3.4h-5.082a2.187,2.187,0,0,0,2.4,2.256,5.727,5.727,0,0,0,2.052-.359l.264,1.174a6.367,6.367,0,0,1-2.557.47,3.536,3.536,0,0,1-3.793-3.839c0-2.336,1.445-4.092,3.6-4.092,1.947,0,3.169,1.443,3.169,3.622a3.276,3.276,0,0,1-.058.766Zm-1.552-1.207c0-1.176-.593-2.005-1.677-2.005a2.006,2.006,0,0,0-1.851,2.005Z" transform="translate(806.244 10958.968)" fill="#0f0821"/>
  </g>
</svg>
