<svg id="error" xmlns="http://www.w3.org/2000/svg" width="50" height="50" viewBox="0 0 50 50">
  <path id="Path_30451" data-name="Path 30451" d="M40.625,50H9.375A9.374,9.374,0,0,1,0,40.625V9.375A9.374,9.374,0,0,1,9.375,0h31.25A9.374,9.374,0,0,1,50,9.375v31.25A9.374,9.374,0,0,1,40.625,50Z" fill="#ffe6e2"/>
  <path id="Path_30453" data-name="Path 30453" d="M39.2,32.337,29.96,17.331A3.428,3.428,0,0,0,24.1,17.3L14.885,32.274a3.3,3.3,0,0,0-.551,1.846,3.433,3.433,0,0,0,3.434,3.421H36.28a3.424,3.424,0,0,0,3.431-3.416,3.253,3.253,0,0,0-.512-1.788ZM27.023,34.047A1.751,1.751,0,1,1,28.774,32.3,1.751,1.751,0,0,1,27.023,34.047Zm1.749-6.128a1.751,1.751,0,1,1-3.5,0v-3.5a1.751,1.751,0,1,1,3.5,0Z" transform="translate(-1.833 -1.604)" fill="#fc573b"/>
</svg>
