<svg id="_001-twitter" data-name="001-twitter" xmlns="http://www.w3.org/2000/svg" xmlns:xlink="http://www.w3.org/1999/xlink" width="18" height="18" viewBox="0 0 18 18">
  <defs>
    <linearGradient id="linear-gradient" x1="0.332" y1="0.141" x2="0.585" y2="0.682" gradientUnits="objectBoundingBox">
      <stop offset="0" stop-color="#00c3ff"/>
      <stop offset="1" stop-color="#00b0ed"/>
    </linearGradient>
    <linearGradient id="linear-gradient-2" x1="0.738" y1="0.628" x2="-0.899" y2="-0.25" gradientUnits="objectBoundingBox">
      <stop offset="0" stop-color="#00b0ed" stop-opacity="0"/>
      <stop offset="1" stop-color="#00a2ce"/>
    </linearGradient>
    <linearGradient id="linear-gradient-3" x1="0.5" y1="0.27" x2="0.5" y2="0.926" xlink:href="#linear-gradient-2"/>
    <linearGradient id="linear-gradient-4" x1="0.946" y1="0.922" x2="0.342" y2="0.273" xlink:href="#linear-gradient-2"/>
  </defs>
  <path id="Path_12301" data-name="Path 12301" d="M14.78,17.692a54.368,54.368,0,0,1-11.561,0A3.278,3.278,0,0,1,.308,14.78a54.366,54.366,0,0,1,0-11.561A3.278,3.278,0,0,1,3.22.308a54.366,54.366,0,0,1,11.561,0A3.278,3.278,0,0,1,17.692,3.22a54.366,54.366,0,0,1,0,11.561A3.277,3.277,0,0,1,14.78,17.692Zm0,0" transform="translate(0 0)" fill="url(#linear-gradient)"/>
  <path id="Path_12302" data-name="Path 12302" d="M44.533,31.691a2.908,2.908,0,0,0-2.583-2.584,48.262,48.262,0,0,0-10.259,0,2.909,2.909,0,0,0-2.584,2.584,48.261,48.261,0,0,0,0,10.259,2.908,2.908,0,0,0,2.584,2.584,48.241,48.241,0,0,0,10.259,0,2.908,2.908,0,0,0,2.584-2.584A48.241,48.241,0,0,0,44.533,31.691Zm0,0" transform="translate(-27.82 -27.82)" fill="url(#linear-gradient-2)"/>
  <path id="Path_12303" data-name="Path 12303" d="M7.672,409.8q.019.187.038.373a3.278,3.278,0,0,0,2.912,2.911,54.366,54.366,0,0,0,11.561,0,3.277,3.277,0,0,0,2.911-2.911q.02-.187.039-.373Zm0,0" transform="translate(-7.402 -395.398)" fill="url(#linear-gradient-3)"/>
  <path id="Path_12304" data-name="Path 12304" d="M111.9,130.609l-3.736-3.736a4.459,4.459,0,0,1-1.066.446,3.049,3.049,0,0,1-.376.077,2.32,2.32,0,0,0-3.981,1.62c0,.046,0,.092,0,.138a2.236,2.236,0,0,0,.042.326,6.355,6.355,0,0,1-3.932-1.572h0l-.782-.782a2.308,2.308,0,0,0,.431,2.816,2.578,2.578,0,0,0,.2.2l.017.019a2.273,2.273,0,0,1-1.018-.283,2.251,2.251,0,0,0,.753,1.7l.658.664a1.281,1.281,0,0,1-.577-.055,2.217,2.217,0,0,0,.664,1.044l.922.927a4.775,4.775,0,0,1-2.8.623l5.595,5.467a54.423,54.423,0,0,0,5.764-.308,3.278,3.278,0,0,0,2.912-2.911A54.453,54.453,0,0,0,111.9,130.609Zm0,0" transform="translate(-93.899 -122.241)" fill="url(#linear-gradient-4)"/>
  <path id="Path_12305" data-name="Path 12305" d="M108.474,127.774a4.2,4.2,0,0,1-1.2.332l0-.028a2.227,2.227,0,0,0,.883-1.205,4.459,4.459,0,0,1-1.066.446,3.074,3.074,0,0,1-.376.077,2.32,2.32,0,0,0-3.981,1.62c0,.046,0,.092,0,.137a2.237,2.237,0,0,0,.042.326,6.485,6.485,0,0,1-4.714-2.354,2.3,2.3,0,0,0,.7,3.033,2.419,2.419,0,0,1-1.077-.286,2.321,2.321,0,0,0,1.89,2.286,2.2,2.2,0,0,1-1.055.022,2.238,2.238,0,0,0,2.11,1.6,4.623,4.623,0,0,1-3.321.988,6.557,6.557,0,0,0,10.057-5.543q0-.068,0-.136c0-.027,0-.053,0-.08s0-.038,0-.056A4.1,4.1,0,0,0,108.474,127.774Zm0,0" transform="translate(-93.895 -122.241)" fill="#fff"/>
</svg>
