<svg id="wallet" xmlns="http://www.w3.org/2000/svg" width="50" height="50" viewBox="0 0 50 50">
  <g id="Layer_2">
    <path id="Path_22132" data-name="Path 22132" d="M40.625,50H9.375A9.374,9.374,0,0,1,0,40.625V9.375A9.374,9.374,0,0,1,9.375,0h31.25A9.374,9.374,0,0,1,50,9.375v31.25A9.374,9.374,0,0,1,40.625,50Z" fill="#deebff"/>
  </g>
  <g id="solid" transform="translate(12.5 13.281)">
    <path id="Path_22135" data-name="Path 22135" d="M28.313,16.833h2.6V14.75a2.085,2.085,0,0,0-2.083-2.083H27.792V10.583A2.085,2.085,0,0,0,25.709,8.5H11.125a3.121,3.121,0,0,0-3.072,2.6A.981.981,0,0,0,8,11.364V27.25a3.128,3.128,0,0,0,3.125,3.125H28.833a2.085,2.085,0,0,0,2.083-2.083V26.209h-2.6a4.688,4.688,0,0,1,0-9.377ZM11.125,12.667a1.042,1.042,0,0,1,0-2.084H25.708v2.083H11.125Z" transform="translate(-8 -8.5)" fill="#196cff"/>
    <path id="Path_22136" data-name="Path 22136" d="M26.031,14.833H22.125a3.125,3.125,0,1,0,0,6.25h3.906a.782.782,0,0,0,.781-.781V15.614A.782.782,0,0,0,26.031,14.833ZM22.125,19a1.042,1.042,0,1,1,1.042-1.042A1.043,1.043,0,0,1,22.125,19Z" transform="translate(-1.813 -4.938)" fill="#4e8eff"/>
  </g>
</svg>
