<svg id="_007-youtube" data-name="007-youtube" xmlns="http://www.w3.org/2000/svg" xmlns:xlink="http://www.w3.org/1999/xlink" width="18" height="18" viewBox="0 0 18 18">
  <defs>
    <linearGradient id="linear-gradient" x1="0.227" y1="-0.025" x2="0.948" y2="1.363" gradientUnits="objectBoundingBox">
      <stop offset="0" stop-color="#fffcf8"/>
      <stop offset="0.188" stop-color="#faf8f6"/>
      <stop offset="0.404" stop-color="#eceef2"/>
      <stop offset="0.635" stop-color="#d5dcea"/>
      <stop offset="0.875" stop-color="#b5c4df"/>
      <stop offset="1" stop-color="#a1b5d8"/>
    </linearGradient>
    <linearGradient id="linear-gradient-2" x1="0.369" y1="0.426" x2="-1.54" y2="-0.648" gradientUnits="objectBoundingBox">
      <stop offset="0" stop-color="#a1b5d8" stop-opacity="0"/>
      <stop offset="0.309" stop-color="#90a2bd" stop-opacity="0.31"/>
      <stop offset="0.755" stop-color="#7c8b9c" stop-opacity="0.757"/>
      <stop offset="1" stop-color="#748290"/>
    </linearGradient>
    <linearGradient id="linear-gradient-3" x1="0.5" y1="0.413" x2="0.5" y2="1.193" xlink:href="#linear-gradient-2"/>
    <linearGradient id="linear-gradient-4" x1="0.785" y1="0.754" x2="-0.068" y2="-0.216" xlink:href="#linear-gradient-2"/>
    <linearGradient id="linear-gradient-5" x1="0.439" y1="0.245" x2="0.587" y2="0.867" gradientUnits="objectBoundingBox">
      <stop offset="0" stop-color="#e52d27"/>
      <stop offset="1" stop-color="#b31217"/>
    </linearGradient>
  </defs>
  <path id="Path_12333" data-name="Path 12333" d="M14.78,17.692a54.368,54.368,0,0,1-11.561,0A3.278,3.278,0,0,1,.308,14.78a54.366,54.366,0,0,1,0-11.561A3.278,3.278,0,0,1,3.22.308a54.366,54.366,0,0,1,11.561,0A3.278,3.278,0,0,1,17.692,3.22a54.366,54.366,0,0,1,0,11.561A3.277,3.277,0,0,1,14.78,17.692Zm0,0" transform="translate(0 0)" fill="url(#linear-gradient)"/>
  <path id="Path_12334" data-name="Path 12334" d="M44.533,31.691a2.908,2.908,0,0,0-2.583-2.584,48.262,48.262,0,0,0-10.259,0,2.909,2.909,0,0,0-2.584,2.584,48.261,48.261,0,0,0,0,10.259,2.908,2.908,0,0,0,2.584,2.584,48.241,48.241,0,0,0,10.259,0,2.908,2.908,0,0,0,2.584-2.584A48.241,48.241,0,0,0,44.533,31.691Zm0,0" transform="translate(-27.82 -27.82)" fill="url(#linear-gradient-2)"/>
  <path id="Path_12335" data-name="Path 12335" d="M7.672,409.8q.019.187.038.373a3.277,3.277,0,0,0,2.912,2.911,54.366,54.366,0,0,0,11.561,0,3.277,3.277,0,0,0,2.911-2.911q.02-.187.039-.373Zm0,0" transform="translate(-7.402 -395.398)" fill="url(#linear-gradient-3)"/>
  <path id="Path_12336" data-name="Path 12336" d="M111.582,162.238a3.277,3.277,0,0,0,2.911-2.912q.27-2.525.3-5.055l-3.91-3.91c-.2-.249-.382-.272-.759-.345a6.109,6.109,0,0,0-.927-.113c-.992-.039-1.985-.076-2.977-.086a34.9,34.9,0,0,0-4.367.16,1.53,1.53,0,0,0-1.359,1.233c-.036.344-.1.686-.119,1.031a19.11,19.11,0,0,0,.089,3.76,1.087,1.087,0,0,0,.406.844l5.7,5.7Q109.077,162.5,111.582,162.238Zm0,0" transform="translate(-96.802 -144.546)" fill="url(#linear-gradient-4)"/>
  <path id="Path_12337" data-name="Path 12337" d="M103.2,153.546c-1.453-.049-2.578-.076-3.7-.13a3.943,3.943,0,0,1-1.02-.169,1.441,1.441,0,0,1-1.027-1.262,19.109,19.109,0,0,1-.089-3.76c.02-.345.083-.687.119-1.031a1.529,1.529,0,0,1,1.358-1.233,34.9,34.9,0,0,1,4.367-.16c.993.009,1.985.047,2.977.086a6.128,6.128,0,0,1,.927.112,1.389,1.389,0,0,1,1.179,1.226,13.153,13.153,0,0,1,.168,2.758c-.025.7-.1,1.4-.17,2.091a1.441,1.441,0,0,1-1.343,1.261C105.595,153.426,104.237,153.49,103.2,153.546Zm0,0" transform="translate(-93.896 -140.672)" fill="url(#linear-gradient-5)"/>
  <path id="Path_12338" data-name="Path 12338" d="M225.8,210.044l2.8-1.717-2.8-1.718Zm0,0" transform="translate(-217.862 -199.346)" fill="#fff"/>
</svg>
